HIERARCHY
ROOT Hips
{
	OFFSET -0.001795 -0.223333 0.028219
	CHANNELS 6 Xposition Yposition Zposition Zrotation Yrotation Xrotation 
	JOINT LeftUpLeg
	{
		OFFSET 0.069520 -0.091406 -0.006815
		CHANNELS 3 Zrotation Yrotation Xrotation
		JOINT LeftLeg
		{
			OFFSET 0.034277 -0.375199 -0.004496
			CHANNELS 3 Zrotation Yrotation Xrotation
			JOINT LeftFoot
			{
				OFFSET -0.013596 -0.397961 -0.043693
				CHANNELS 3 Zrotation Yrotation Xrotation
				JOINT LeftToe
				{
					OFFSET 0.026358 -0.055791 0.119288
					CHANNELS 3 Zrotation Yrotation Xrotation
					End Site
					{
						OFFSET 0.000000 0.000000 0.000000
					}
				}
			}
		}
	}
	JOINT RightUpLeg
	{
		OFFSET -0.067670 -0.090522 -0.004320
		CHANNELS 3 Zrotation Yrotation Xrotation
		JOINT RightLeg
		{
			OFFSET -0.038290 -0.382569 -0.008850
			CHANNELS 3 Zrotation Yrotation Xrotation
			JOINT RightFoot
			{
				OFFSET 0.015774 -0.398415 -0.042312
				CHANNELS 3 Zrotation Yrotation Xrotation
				JOINT RightToe
				{
					OFFSET -0.025372 -0.048144 0.123348
					CHANNELS 3 Zrotation Yrotation Xrotation
					End Site
					{
						OFFSET 0.000000 0.000000 0.000000
					}
				}
			}
		}
	}
	JOINT Spine
	{
		OFFSET -0.002533 0.108963 -0.026696
		CHANNELS 3 Zrotation Yrotation Xrotation
		JOINT Spine1
		{
			OFFSET 0.005487 0.135180 0.001092
			CHANNELS 3 Zrotation Yrotation Xrotation
			JOINT Spine2
			{
				OFFSET 0.001457 0.052922 0.025425
				CHANNELS 3 Zrotation Yrotation Xrotation
				JOINT Neck
				{
					OFFSET -0.002778 0.213870 -0.042857
					CHANNELS 3 Zrotation Yrotation Xrotation
					JOINT Head
					{
						OFFSET 0.005152 0.064970 0.051349
						CHANNELS 3 Zrotation Yrotation Xrotation
						End Site
						{
							OFFSET 0.000000 0.000000 0.000000
						}
					}
				}
				JOINT LeftShoulder
				{
					OFFSET 0.078845 0.121749 -0.034090
					CHANNELS 3 Zrotation Yrotation Xrotation
					JOINT LeftArm
					{
						OFFSET 0.090977 0.030469 -0.008868
						CHANNELS 3 Zrotation Yrotation Xrotation
						JOINT LeftForeArm
						{
							OFFSET 0.259612 -0.012772 -0.027456
							CHANNELS 3 Zrotation Yrotation Xrotation
							JOINT LeftHand
							{
								OFFSET 0.249234 0.008986 -0.001171
								CHANNELS 3 Zrotation Yrotation Xrotation
								End Site
								{
									OFFSET 0.000000 0.000000 0.000000
								}
							}
						}
					}
				}
				JOINT RightShoulder
				{
					OFFSET -0.081759 0.118833 -0.038615
					CHANNELS 3 Zrotation Yrotation Xrotation
					JOINT RightArm
					{
						OFFSET -0.096012 0.032551 -0.009143
						CHANNELS 3 Zrotation Yrotation Xrotation
						JOINT RightForeArm
						{
							OFFSET -0.253742 -0.013329 -0.021401
							CHANNELS 3 Zrotation Yrotation Xrotation
							JOINT RightHand
							{
								OFFSET -0.255298 0.007772 -0.005559
								CHANNELS 3 Zrotation Yrotation Xrotation
								End Site
								{
									OFFSET 0.000000 0.000000 0.000000
								}
							}
						}
					}
				}
			}
		}
	}
}
MOTION
Frames: 10
Frame Time: 0.050000
-0.056516 0.947083 -0.057478 -6.236883 6.036148 4.111086 10.984434 -0.402403 -5.978809 -6.494275 0.594729 -0.076493 14.582362 26.879559 14.802953 0.000000 0.000000 0.000000 -11.563436 -0.015401 -20.270930 3.677696 -0.488749 12.779899 -9.322164 -20.356841 32.441237 0.000000 0.000000 0.000000 -4.679326 -0.132681 17.474354 6.952449 -1.015613 -23.431349 0.415109 -0.457803 30.850641 4.587142 0.009305 -32.431879 0.000000 0.000000 0.000000 -11.469231 9.504899 -5.504399 -39.935248 7.839962 -8.951183 -86.605882 -35.848123 35.944834 0.000000 0.000000 0.000000 1.551243 0.365037 0.140748 45.287115 -7.585834 -8.945721 82.163462 44.744510 43.737511 0.000000 0.000000 0.000000 
-0.051244 0.947319 -0.057489 -6.774493 5.946291 3.845783 11.428358 -0.393714 -5.829027 -6.559171 0.610613 0.314342 14.561431 26.829195 15.025038 0.000000 0.000000 0.000000 -11.087784 0.060738 -20.577657 4.700630 -0.790448 15.384254 -9.209427 -20.283974 31.169708 0.000000 0.000000 0.000000 -4.258750 -0.216989 17.756330 7.512955 -1.146475 -23.614957 -0.258624 -0.711285 30.269959 5.542085 -0.688803 -30.918284 0.000000 0.000000 0.000000 -10.985428 10.261582 -5.735747 -39.518313 9.450945 -9.256439 -84.942433 -33.934167 33.091985 0.000000 0.000000 0.000000 1.830526 -0.913665 -0.353501 45.049628 -9.278689 -9.423563 79.804567 41.682239 38.927900 0.000000 0.000000 0.000000 
-0.049013 0.948109 -0.056169 -6.811259 6.162787 3.415783 11.732496 -0.390199 -5.892943 -7.469835 0.720184 1.390675 15.673717 28.193688 15.729047 0.000000 0.000000 0.000000 -10.623294 0.118212 -20.654886 5.287404 -1.029979 17.678922 -8.577292 -19.511220 28.954495 0.000000 0.000000 0.000000 -4.311439 -0.189024 16.600386 8.095012 -1.402577 -22.411839 -0.970158 -1.793434 29.968469 5.960840 -1.216700 -29.690401 0.000000 0.000000 0.000000 -10.963527 10.255899 -5.599183 -39.250936 10.950608 -9.605738 -83.556337 -34.373175 33.112732 0.000000 0.000000 0.000000 2.539057 -1.850518 -0.752753 43.615867 -10.122370 -9.418595 77.372129 39.782047 35.062471 0.000000 0.000000 0.000000 
-0.049685 0.949604 -0.053341 -7.497617 7.413482 2.920379 12.607714 -0.432336 -5.515893 -7.616856 0.703412 1.237965 16.514551 29.094757 17.001139 0.000000 0.000000 0.000000 -10.728847 0.039212 -19.226129 6.908000 -1.566547 17.587609 -8.600401 -19.354541 28.270432 0.000000 0.000000 0.000000 -3.894964 -0.282262 16.097128 9.139705 -1.614450 -23.004964 -1.259312 -2.586174 30.623923 5.330639 -0.867294 -29.904523 0.000000 0.000000 0.000000 -11.542371 10.517856 -5.820777 -37.795114 11.135060 -9.295508 -83.225079 -32.706117 31.178463 0.000000 0.000000 0.000000 2.230309 -2.543833 -1.011234 43.925169 -11.721581 -10.021382 75.089189 37.764577 31.960368 0.000000 0.000000 0.000000 
-0.053369 0.950440 -0.049058 -7.888094 7.394607 3.194850 13.276877 -0.443603 -5.559514 -8.100413 0.749597 1.297051 17.354179 30.127505 16.901557 0.000000 0.000000 0.000000 -11.268112 -0.031965 -18.875757 7.394296 -1.691377 17.321815 -9.411009 -20.401286 29.152553 0.000000 0.000000 0.000000 -3.718465 -0.243354 14.187156 9.546435 -1.903007 -21.221374 -0.935164 -3.355402 30.234589 4.356146 -0.440758 -29.962132 0.000000 0.000000 0.000000 -11.080852 11.028465 -5.888798 -38.539557 11.398167 -9.541335 -83.135150 -32.290884 31.120153 0.000000 0.000000 0.000000 0.615494 -2.676245 -1.005364 44.793917 -12.396198 -10.415303 75.540965 36.092653 30.482820 0.000000 0.000000 0.000000 
-0.060510 0.951091 -0.044091 -7.708888 7.680123 4.131922 13.428418 -0.467552 -6.134640 -8.274706 0.741673 0.836443 18.081539 31.019658 16.927651 0.000000 0.000000 0.000000 -12.352279 -0.179783 -18.233116 6.348536 -1.302824 15.245826 -8.561972 -19.248046 28.444312 0.000000 0.000000 0.000000 -3.712018 -0.188365 12.638126 9.844351 -1.896276 -21.954797 -1.050779 -4.507879 31.209562 3.722197 -0.159346 -31.352786 0.000000 0.000000 0.000000 -10.900171 11.349561 -5.890044 -38.531257 11.587116 -9.664301 -83.718545 -32.282063 31.804317 0.000000 0.000000 0.000000 -0.505695 -2.263401 -0.804893 45.612259 -12.562591 -10.804807 76.167766 35.455224 29.956526 0.000000 0.000000 0.000000 
-0.071360 0.951190 -0.039332 -7.845050 6.878971 5.271454 14.466674 -0.440884 -6.935940 -8.408856 0.754927 0.336190 18.855413 32.054560 16.630688 0.000000 0.000000 0.000000 -13.613731 -0.302899 -18.458724 3.989132 -0.585723 12.515439 -7.965639 -18.545600 30.688433 0.000000 0.000000 0.000000 -3.405903 -0.166558 11.436155 10.339058 -2.088390 -21.407428 -0.884729 -3.288685 30.461526 2.995488 0.335697 -30.780818 0.000000 0.000000 0.000000 -10.245504 11.480214 -5.948000 -38.978750 11.162332 -9.573312 -85.579113 -32.262524 32.448002 0.000000 0.000000 0.000000 -0.049819 -1.988749 -0.729630 45.394639 -12.668678 -10.666900 77.457369 36.757148 32.073028 0.000000 0.000000 0.000000 
-0.086351 0.948406 -0.034708 -7.251354 6.590232 6.461838 14.871277 -0.425356 -7.803897 -8.557450 0.756990 -0.177296 19.716581 33.060808 17.102536 0.000000 0.000000 0.000000 -14.774923 -0.447583 -18.892771 0.769688 0.131791 9.611115 -7.493852 -17.998483 33.805497 0.000000 0.000000 0.000000 -3.327814 -0.117069 10.016681 10.565359 -2.098552 -21.737944 -1.294761 -2.575498 31.391920 3.376075 0.289341 -31.777839 0.000000 0.000000 0.000000 -10.504326 11.097403 -5.879276 -39.561119 11.044444 -9.767961 -85.335355 -33.193719 33.059315 0.000000 0.000000 0.000000 1.657027 -1.427620 -0.573809 44.224993 -12.003531 -10.247247 77.808265 39.152477 34.612558 0.000000 0.000000 0.000000 
-0.105677 0.945185 -0.030188 -6.909545 6.890737 6.399353 15.810409 -0.411597 -8.269212 -8.547011 0.795445 0.954323 19.807669 33.192141 17.055274 0.000000 0.000000 0.000000 -15.405095 -0.556115 -18.470439 -0.716973 0.374261 7.831115 -5.563159 -15.685972 35.836854 0.000000 0.000000 0.000000 -3.729871 -0.079789 10.218274 10.297821 -2.078168 -21.253222 -0.887930 -2.107427 31.283211 4.049488 0.087927 -32.170927 0.000000 0.000000 0.000000 -10.283866 9.823061 -5.310714 -41.014710 8.853457 -9.510992 -84.274630 -35.948933 35.091460 0.000000 0.000000 0.000000 1.575327 -0.228273 -0.103359 45.633442 -11.342931 -10.318422 77.428566 42.813246 38.151685 0.000000 0.000000 0.000000 
-0.129719 0.941189 -0.025751 -6.388876 7.099496 6.623436 16.706136 -0.399901 -8.682442 -8.794131 0.825975 1.232861 20.149437 33.506351 17.645943 0.000000 0.000000 0.000000 -15.542005 -0.589128 -18.396458 -1.414077 0.502341 7.859424 -5.463429 -15.570218 36.660874 0.000000 0.000000 0.000000 -4.448961 0.006200 10.078363 11.109782 -2.341704 -20.896536 -1.147500 -1.787113 31.757239 4.184503 0.231070 -33.722274 0.000000 0.000000 0.000000 -11.813912 9.503448 -5.502397 -41.485843 6.489342 -8.944711 -83.952667 -40.293229 39.105953 0.000000 0.000000 0.000000 2.304006 0.978558 0.372604 46.176739 -9.618468 -9.902780 76.691550 46.710956 41.566600 0.000000 0.000000 0.000000 
